<svg width="314" height="114" viewBox="0 0 314 114" fill="none" xmlns="http://www.w3.org/2000/svg">
<path d="M0 61.6017C0 22.8552 7.83862 10.9536 20.899 10.9536C25.1757 10.9536 32.2995 15.5525 37.0487 15.5525C43.5789 15.5525 44.5239 10 46.426 10C48.6794 10 49.1519 20.6342 49.1519 25.7159C49.1519 35.0826 46.6562 40.6351 39.6535 40.6351C30.2762 40.6351 21.2503 26.8264 11.7519 26.8264C7.00266 26.8264 2.49576 30.0009 2.49576 36.507C2.49576 49.688 19.2392 55.8802 29.5735 55.8802C37.0487 55.8802 39.6656 51.2813 41.7979 51.2813C42.5127 51.2813 42.8641 51.9211 42.8641 54.1421C42.8641 67.3231 41.6768 75.2535 35.9826 75.2535C28.0228 75.2535 25.5391 53.9851 14.0174 54.1421C8.55343 53.9851 5.23383 59.6945 5.23383 67.7939C5.23383 79.8644 13.3148 92.5627 26.6053 92.5627C42.6339 92.5627 44.2937 77.9573 47.6254 77.9573C48.9339 77.9573 50 80.818 50 86.8533C50 103.523 40.1502 114 28.9799 114C9.98304 114 0.0121153 97.0167 0.0121153 61.6137L0 61.6017Z" fill="url(#paint0_linear_0_1)"/>
<path d="M59.3745 24C67.2923 24 68.5573 29.7785 68.5573 35.0927C68.5573 51.6463 61.6702 61.6028 61.6702 75.5909C61.6702 87.6487 69.4708 90.8617 75.5614 90.8617C87.6137 90.8617 94.2782 76.8858 94.2782 65.4755C94.2782 38.6355 72.5864 38.1591 72.5864 27.7139C72.5864 26.2723 73.3946 25.6248 74.765 25.6248C76.721 25.6248 79.3563 26.1013 81.8863 26.1013C83.3738 26.1013 85.9037 25.6248 88.7733 25.6248C93.7043 25.6248 96 33.1747 96 55.3479C96 88.455 83.7134 114 66.2733 114C64.5515 114 63.9776 113.194 63.9776 111.435C63.9776 81.5526 51 38.3179 51 27.8727C51 25.466 54.9003 24.0122 59.3863 24.0122L59.3745 24Z" fill="url(#paint1_linear_0_1)"/>
<path d="M115.224 26.6368C118.21 26.6368 121.794 27.586 126.096 27.586C130.155 27.586 133.861 26 135.896 26C137.566 26 138.639 26.6368 139.833 30.4216C144.258 43.5423 147 66.1431 147 68.0295C147 70.2403 146.403 71.8263 143.77 71.8263C136.847 71.8263 128.242 75.2987 119.527 75.2987C117.138 75.2987 114.627 74.3495 114.627 71.6581C114.627 70.3965 115.346 69.7597 116.175 69.7597C118.686 69.7597 120.599 72.1267 131.35 72.1267C133.263 72.1267 135.652 71.3337 135.652 67.3807C135.652 50.4752 124.548 31.8274 113.786 31.8274C110.678 31.8274 109.361 37.0421 109.361 52.8422C109.361 85.5598 118.442 93.1415 129.668 93.1415C140.296 93.1415 142.807 84.923 144.599 84.923C145.671 84.923 146.037 86.1846 146.037 88.7198C146.037 96.3015 140.784 114 126.803 114C107.338 114 101 95.9891 101 76.8607C101 51.7368 111.275 26.6008 115.212 26.6008L115.224 26.6368Z" fill="url(#paint2_linear_0_1)"/>
<path d="M174 109.929C174 111.358 173.408 112 172.344 112C171.28 112 167.013 111.528 163.579 111.528C159.783 111.528 155.044 112 152.675 112C151.249 112 150.426 110.571 150.426 108.331C150.426 103.875 162.153 83.7982 162.153 68.9889C162.153 42.228 149 22.3209 149 16.4238C149 14.0383 149.834 13.8809 156.701 10.8537C162.975 8.14127 166.771 4 168.548 4C169.612 4 169.974 5.11403 169.974 6.22805C169.974 14.1958 163.217 37.1302 163.217 68.9768C163.217 85.6993 174 102.737 174 109.905V109.929Z" fill="url(#paint3_linear_0_1)"/>
<path d="M202 109.935C202 111.36 201.408 112 200.344 112C199.28 112 195.013 111.529 191.579 111.529C187.783 111.529 183.044 112 180.675 112C179.249 112 178.427 110.575 178.427 108.34C178.427 104.21 190.153 85.7785 190.153 72.2752C190.153 54.1702 177 35.0989 177 29.7C177 27.6346 177.834 27.6346 184.701 26.6805C191.567 25.7263 194.42 23.818 196.548 23.818C197.612 23.818 197.974 25.4123 197.974 26.5235C197.974 32.4055 191.217 49.0853 191.217 72.2752C191.217 87.6868 202 103.412 202 109.923V109.935ZM180.554 1.90834C180.554 0.954168 181.026 0 182.21 0C183.637 0 186.115 0.640138 191.446 0.640138C193.695 0.640138 195.351 0.483123 196.536 0.483123C197.962 0.483123 198.555 0.797153 198.555 2.8625C198.555 11.4379 191.688 20.0254 188.835 20.0254C185.982 20.0254 180.542 8.58751 180.542 1.92041L180.554 1.90834Z" fill="url(#paint4_linear_0_1)"/>
<path d="M227.162 33.9186C235.491 33.9186 238.889 24 246.392 24C250.377 24 253.309 26.5557 253.309 38.7258C253.309 45.2855 249.444 56.0196 249.444 66.4128C249.444 101.633 258 104.834 258 108.838C258 111.88 255.535 113 249.085 113C239.356 113 233.959 108.193 233.959 97.7874C233.959 80.019 248.858 66.7293 248.858 58.7335C248.858 49.9345 236.891 35.5251 228.682 35.5251C221.406 35.5251 218.594 54.0967 218.594 64.9768C218.594 77.7797 228.802 99.2356 228.802 109.154C228.802 111.077 228.215 112.842 226.923 112.842C223.285 112.842 220.473 112.039 217.194 112.039C211.33 112.039 210.158 112.842 206.639 112.842C205.706 112.842 205 112.039 205 110.444C205 98.116 217.433 79.7148 217.433 67.5446C217.433 51.6992 206.412 37.448 206.412 28.8072C206.412 26.7261 207.465 25.7647 208.518 25.7647C217.433 25.7647 221.538 33.9308 227.162 33.9308V33.9186Z" fill="url(#paint5_linear_0_1)"/>
<path d="M308.389 28.6843C308.389 33.7293 306.049 50.1227 306.049 58.9426C306.049 80.2252 314 104.024 314 109.693C314 110.639 313.296 111.742 312.484 111.742C309.32 111.742 305.584 111.43 302.074 111.43C298.91 111.586 295.639 111.898 292.834 111.898C291.544 111.898 290.959 111.262 290.959 108.902C290.959 98.9674 304.533 72.6517 304.533 57.6723C304.533 45.8566 288.034 35.7665 277.971 35.7665C273.995 35.7665 273.529 36.2339 273.529 63.664C273.529 89.6682 276.693 95.0248 281.958 95.0248C288.631 95.0248 290.852 89.9797 291.317 81.6273C291.783 75.324 292.022 71.2256 293.657 71.2256C294.588 71.2256 294.708 72.7955 294.708 73.9099C294.708 85.2583 283.355 113 272.598 113C265.925 113 263 105.906 263 87.7868C263 55.9467 272.36 26 288.034 26C292.249 26 296.224 26.6351 299.268 26.6351C302.312 26.6351 304.187 26 306.407 26C307.923 26 308.401 27.2583 308.401 28.6843H308.389Z" fill="url(#paint6_linear_0_1)"/>
<defs>
<linearGradient id="paint0_linear_0_1" x1="25" y1="10" x2="25" y2="114" gradientUnits="userSpaceOnUse">
<stop stop-color="#0B486B"/>
<stop offset="0.697917" stop-color="#F56217"/>
<stop offset="0.9998" stop-color="#E94057"/>
<stop offset="0.9999" stop-color="#F27121"/>
</linearGradient>
<linearGradient id="paint1_linear_0_1" x1="73.5" y1="24" x2="73.5" y2="114" gradientUnits="userSpaceOnUse">
<stop stop-color="#0B486B"/>
<stop offset="0.697917" stop-color="#F56217"/>
<stop offset="0.9998" stop-color="#E94057"/>
<stop offset="0.9999" stop-color="#F27121"/>
</linearGradient>
<linearGradient id="paint2_linear_0_1" x1="124" y1="26" x2="124" y2="114" gradientUnits="userSpaceOnUse">
<stop stop-color="#0B486B"/>
<stop offset="0.697917" stop-color="#F56217"/>
<stop offset="0.9998" stop-color="#E94057"/>
<stop offset="0.9999" stop-color="#F27121"/>
</linearGradient>
<linearGradient id="paint3_linear_0_1" x1="161.5" y1="4" x2="161.5" y2="112" gradientUnits="userSpaceOnUse">
<stop stop-color="#0B486B"/>
<stop offset="0.697917" stop-color="#F56217"/>
<stop offset="0.9998" stop-color="#E94057"/>
<stop offset="0.9999" stop-color="#F27121"/>
</linearGradient>
<linearGradient id="paint4_linear_0_1" x1="189.5" y1="0" x2="189.5" y2="112" gradientUnits="userSpaceOnUse">
<stop stop-color="#0B486B"/>
<stop offset="0.697917" stop-color="#F56217"/>
<stop offset="0.9998" stop-color="#E94057"/>
<stop offset="0.9999" stop-color="#F27121"/>
</linearGradient>
<linearGradient id="paint5_linear_0_1" x1="231.5" y1="24" x2="231.5" y2="113" gradientUnits="userSpaceOnUse">
<stop stop-color="#0B486B"/>
<stop offset="0.697917" stop-color="#F56217"/>
<stop offset="0.9998" stop-color="#E94057"/>
<stop offset="0.9999" stop-color="#F27121"/>
</linearGradient>
<linearGradient id="paint6_linear_0_1" x1="288.5" y1="26" x2="288.5" y2="113" gradientUnits="userSpaceOnUse">
<stop stop-color="#0B486B"/>
<stop offset="0.697917" stop-color="#F56217"/>
<stop offset="0.9998" stop-color="#E94057"/>
<stop offset="0.9999" stop-color="#F27121"/>
</linearGradient>
</defs>
</svg>
